<svg xmlns="http://www.w3.org/2000/svg" viewBox="0 0 200 200" width="100%" height="100%">
  <!-- Background Glow -->
  <defs>
    <radialGradient id="glow" cx="50%" cy="50%" r="50%">
      <stop offset="0%" stop-color="#38BDF8" stop-opacity="0.15"/>
      <stop offset="100%" stop-color="#38BDF8" stop-opacity="0"/>
    </radialGradient>
    <linearGradient id="blueGrad" x1="0%" y1="0%" x2="100%" y2="100%">
      <stop offset="0%" stop-color="#38BDF8"/>
      <stop offset="100%" stop-color="#0EA5E9"/>
    </linearGradient>
    <linearGradient id="paperGrad" x1="0%" y1="0%" x2="0%" y2="100%">
      <stop offset="0%" stop-color="#FFFFFF"/>
      <stop offset="100%" stop-color="#E2E8F0"/>
    </linearGradient>
  </defs>

  <!-- Ambient Glow -->
  <circle cx="100" cy="100" r="90" fill="url(#glow)"/>

  <!-- Newspaper Icon -->
  <g transform="translate(35, 35)">
    <!-- Base Newspaper Shape (Folded back page) -->
    <rect x="15" y="10" width="100" height="120" rx="6" fill="#94A3B8" opacity="0.5" />
    
    <!-- Front Newspaper Page -->
    <rect x="5" y="20" width="100" height="120" rx="6" fill="url(#paperGrad)" filter="drop-shadow(0 4px 6px rgba(0,0,0,0.3))" />
    
    <!-- Newspaper Masthead (Title bar) -->
    <rect x="15" y="32" width="50" height="8" rx="2" fill="#1E293B" />
    <rect x="70" y="32" width="25" height="8" rx="2" fill="#38BDF8" />
    
    <!-- Column 1: Image placeholder -->
    <rect x="15" y="48" width="40" height="30" rx="3" fill="#CBD5E1" />
    
    <!-- Column 2: Text lines -->
    <rect x="60" y="48" width="35" height="4" rx="1" fill="#475569" />
    <rect x="60" y="56" width="35" height="4" rx="1" fill="#475569" />
    <rect x="60" y="64" width="35" height="4" rx="1" fill="#475569" />
    <rect x="60" y="72" width="20" height="4" rx="1" fill="#475569" />

    <!-- Main Article Lines below image -->
    <rect x="15" y="86" width="80" height="4" rx="1" fill="#475569" />
    <rect x="15" y="94" width="80" height="4" rx="1" fill="#475569" />
    <rect x="15" y="102" width="80" height="4" rx="1" fill="#475569" />
    <rect x="15" y="110" width="50" height="4" rx="1" fill="#475569" />
    
    <!-- Fold Accent Line -->
    <path d="M 5 80 L 105 80" stroke="#CBD5E1" stroke-width="1" stroke-dasharray="3 3"/>
  </g>

  <!-- TruthLens (Magnifying Glass Overlay) -->
  <g filter="drop-shadow(0 10px 15px rgba(0,0,0,0.5))">
    <!-- Glass effect background -->
    <circle cx="125" cy="115" r="32" fill="#38BDF8" fill-opacity="0.1" stroke="url(#blueGrad)" stroke-width="5" />
    
    <!-- Lens Reflection -->
    <path d="M 105 100 A 28 28 0 0 1 145 100" fill="none" stroke="#FFFFFF" stroke-width="3" stroke-linecap="round" opacity="0.6" />
    
    <!-- Handle -->
    <path d="M 148 138 L 175 165" stroke="url(#blueGrad)" stroke-width="8" stroke-linecap="round" />
    <path d="M 152 142 L 171 161" stroke="#0F172A" stroke-width="2" stroke-linecap="round" />
  </g>
  
  <!-- Scan / Detection Highlight Effect -->
  <g opacity="0.8">
    <circle cx="125" cy="115" r="2" fill="#22C55E" />
    <!-- Small digital bracket overlay -->
    <path d="M 105 110 L 105 100 L 115 100" fill="none" stroke="#38BDF8" stroke-width="2" stroke-linecap="round" />
    <path d="M 145 120 L 145 130 L 135 130" fill="none" stroke="#38BDF8" stroke-width="2" stroke-linecap="round" />
  </g>
</svg>
